<svg width="120" height="20" viewBox="0 0 120 20" fill="none" xmlns="http://www.w3.org/2000/svg">
<path d="M18 0.488526C18 0.318616 18 0.190284 18 0.0440668C18.0723 0.0330975 18.1284 0.0142231 18.1831 0.0177914C20.0256 0.138111 21.8685 0.0596539 23.7114 0.0328013C24.7286 0.0179814 25.7461 0.0214636 26.7635 0.0182497C28.0315 0.0142429 29.2998 0.0252042 30.5676 0.00520598C31.9868 -0.0171831 33.4 0.0212981 34.7879 0.348262C37.9557 1.09455 39.9107 3.07084 40.6368 6.23244C41.1649 8.53143 41.1474 10.8343 40.3834 13.084C39.3365 16.1663 37.1522 18.0005 34.007 18.7252C32.8345 18.9953 31.6417 19.0142 30.4443 18.9942C28.9998 18.9701 27.5548 18.9773 26.1101 18.968C24.0606 18.9547 22.0111 18.9344 19.9617 18.9268C19.446 18.9249 18.9302 18.9606 18.4144 18.977C18.2847 18.9811 18.1547 18.9776 18.0031 18.9776C18.0031 18.8131 18.0031 18.673 18.0031 18.5082C18.2822 18.4683 18.5565 18.4314 18.83 18.3893C19.7154 18.2531 20.0274 17.9271 20.1049 17.0315C20.1366 16.6646 20.1502 16.2951 20.1505 15.9267C20.1535 11.6346 20.1558 7.34244 20.1476 3.05033C20.1467 2.56611 20.1015 2.07917 20.038 1.59862C19.9682 1.0695 19.631 0.761162 19.1131 0.662463C18.7536 0.59392 18.3896 0.548515 18 0.488526ZM29.7289 0.605264C29.7763 0.676409 29.7814 0.693632 29.7924 0.699087C29.8708 0.738062 29.949 0.778162 30.0299 0.811448C32.0956 1.66135 33.4612 3.17799 34.1589 5.27462C34.9422 7.62816 34.9947 10.0302 34.3782 12.4268C33.7084 15.0309 32.1771 16.9573 29.7109 18.0989C29.6346 18.1342 29.566 18.1859 29.4106 18.2808C29.7131 18.3632 29.9312 18.4523 30.1566 18.4789C31.4326 18.6297 32.6883 18.4969 33.9184 18.1425C35.6018 17.6575 36.7748 16.5794 37.4295 14.9676C37.6772 14.3576 37.8485 13.7078 37.98 13.061C38.353 11.2265 38.3797 9.36909 38.2282 7.50998C38.1383 6.40557 37.9425 5.31715 37.5421 4.27607C36.88 2.5548 35.6814 1.39948 33.9076 0.86718C32.7218 0.511297 31.504 0.429297 30.2738 0.502129C30.1003 0.512407 29.9293 0.566133 29.7289 0.605264ZM26.36 9.53158C26.36 7.33483 26.3688 5.13801 26.3534 2.94137C26.3499 2.44372 26.2885 1.94224 26.2058 1.45056C26.1244 0.965916 25.7944 0.689062 25.3165 0.580974C24.7907 0.462047 24.2678 0.463141 23.7384 0.565313C23.1797 0.673143 22.8313 0.992993 22.7533 1.55219C22.6864 2.03172 22.6431 2.51879 22.6422 3.00262C22.634 7.33713 22.637 11.6717 22.6383 16.0062C22.6384 16.3009 22.6374 16.5969 22.6633 16.89C22.6853 17.138 22.7301 17.3866 22.7922 17.6279C22.8958 18.0307 23.1561 18.2882 23.5625 18.4017C24.1438 18.564 24.7267 18.5624 25.3114 18.4349C25.8062 18.327 26.1375 18.0314 26.2156 17.5254C26.2894 17.0468 26.3504 16.5607 26.3536 16.0775C26.368 13.8956 26.3599 11.7136 26.36 9.53158ZM29.0691 1.43934C29.0225 1.45737 28.976 1.4754 28.9294 1.49341C28.9006 1.88673 28.8472 2.28002 28.8467 2.67337C28.8409 7.23007 28.8427 11.7868 28.8444 16.3435C28.8444 16.5644 28.8503 16.7866 28.874 17.006C28.8935 17.1865 28.9435 17.3637 28.9919 17.601C29.1992 17.462 29.3482 17.3719 29.4866 17.2676C30.5299 16.4814 31.1539 15.4171 31.5146 14.1824C32.0075 12.4946 32.1183 10.7622 32.0953 9.01679C32.0779 7.70161 31.9601 6.39718 31.6126 5.12191C31.3051 3.99381 30.8222 2.96128 29.9533 2.15048C29.6775 1.89311 29.3649 1.67527 29.0691 1.43934Z" fill="#2D2D2D"/>
<path d="M103 0.486086C103 0.327675 103 0.199086 103 0.049594C103.085 0.0375402 103.156 0.0151648 103.225 0.0193749C105.211 0.140231 107.197 0.0675003 109.183 0.0141742C110.679 -0.026023 112.17 0.00185397 113.638 0.330537C115.585 0.766209 117.232 1.66853 118.389 3.32544C119.06 4.28645 119.488 5.34953 119.71 6.49076C120.115 8.57529 120.137 10.659 119.51 12.7044C118.446 16.1794 116.024 18.157 112.444 18.8126C111.411 19.002 110.366 19.0232 109.319 18.9829C107.288 18.9047 105.258 18.868 103.227 18.9807C103.169 18.9839 103.111 18.9757 103.018 18.9711C103.018 18.8123 103.018 18.6633 103.018 18.4973C103.325 18.4555 103.62 18.4221 103.913 18.3744C104.696 18.2466 104.973 17.9831 105.097 17.2163C105.146 16.9122 105.169 16.6008 105.17 16.2928C105.174 11.7665 105.175 7.24019 105.169 2.7139C105.169 2.36204 105.127 2.00841 105.08 1.65886C105.007 1.11725 104.694 0.773117 104.146 0.666081C103.781 0.594899 103.412 0.549772 103 0.486086ZM107.682 9.49145C107.682 11.688 107.678 13.8846 107.686 16.0811C107.687 16.4778 107.713 16.878 107.771 17.2702C107.888 18.0533 108.226 18.3802 109.024 18.4762C110.301 18.6299 111.56 18.4957 112.791 18.1525C114.583 17.6532 115.807 16.5162 116.459 14.8065C116.695 14.1899 116.866 13.5412 116.989 12.8928C117.353 10.9666 117.365 9.02284 117.161 7.07894C117.057 6.08054 116.849 5.09995 116.466 4.16311C115.78 2.48313 114.562 1.37454 112.801 0.857631C112.069 0.642531 111.317 0.512581 110.553 0.500052C109.974 0.490545 109.39 0.506445 108.814 0.56472C108.241 0.62258 107.898 0.981592 107.813 1.54064C107.746 1.97616 107.691 2.41813 107.688 2.85756C107.676 5.0688 107.683 7.28015 107.682 9.49145Z" fill="#2D2D2D"/>
<path d="M87.0131 0.445197C87.0131 0.287797 87.0131 0.15808 87.0131 0C91.4862 0 95.9475 0 100.452 0C100.326 1.58196 100.189 3.15288 100.364 4.76116C100.163 4.76116 99.9933 4.76116 99.7756 4.76116C99.7139 4.35834 99.6595 3.93822 99.5829 3.52216C99.5161 3.15963 99.4319 2.79979 99.3422 2.44203C99.068 1.34771 98.3378 0.755817 97.2336 0.64193C95.7975 0.493807 94.3558 0.503776 92.9184 0.630053C92.1492 0.697628 91.8404 1.01321 91.7421 1.77442C91.695 2.13985 91.6807 2.51151 91.6795 2.88043C91.6734 4.81688 91.6763 6.75336 91.6761 8.68982C91.6761 8.83385 91.6761 8.97788 91.6761 9.1331C92.4863 9.1331 93.2446 9.17991 93.9943 9.12024C94.7816 9.05759 95.3038 8.55776 95.54 7.83016C95.7211 7.2722 95.7993 6.6811 95.9214 6.10433C95.9542 5.94929 95.98 5.79277 96.0091 5.63632C96.216 5.63632 96.3877 5.63632 96.5784 5.63632C96.4727 8.16741 96.496 10.6731 96.6739 13.2064C96.4734 13.2064 96.303 13.2064 96.0909 13.2064C96.0085 12.7067 95.9465 12.1967 95.8349 11.6977C95.7552 11.3414 95.643 10.9836 95.4847 10.6554C95.2378 10.1441 94.8001 9.85097 94.2336 9.7613C94.0432 9.73117 93.8513 9.69416 93.6597 9.69153C93.0222 9.68278 92.3845 9.68821 91.7037 9.68821C91.6935 9.85567 91.6773 9.99857 91.6772 10.1415C91.6759 12.1371 91.6705 14.1327 91.6822 16.1282C91.6848 16.5544 91.7324 16.9831 91.7943 17.4056C91.8694 17.9174 92.1853 18.2208 92.7029 18.3003C92.9371 18.3362 93.1735 18.3795 93.4092 18.3813C94.4342 18.3892 95.4599 18.4019 96.4842 18.3732C96.9255 18.3609 97.3728 18.2871 97.8021 18.1803C98.7131 17.9536 99.3801 17.3979 99.676 16.5078C99.9077 15.8108 100.038 15.0801 100.204 14.3623C100.254 14.1482 100.272 13.927 100.309 13.6749C100.489 13.6749 100.659 13.6749 100.882 13.6749C100.758 15.4275 100.834 17.1762 101 18.9072C100.97 18.9342 100.96 18.9441 100.949 18.9533C100.938 18.9628 100.927 18.9784 100.914 18.9794C100.84 18.9854 100.766 18.9931 100.692 18.9909C96.1487 18.8568 91.6047 18.9126 87.0298 19C87.017 18.8872 87.0017 18.8048 87.0001 18.7222C86.9988 18.6521 87.0134 18.5818 87.0221 18.5001C87.335 18.4576 87.6281 18.4246 87.9187 18.3769C88.6968 18.2491 88.9775 17.9862 89.1054 17.219C89.1586 16.9003 89.1695 16.5717 89.1698 16.2476C89.1738 11.739 89.1752 7.23045 89.1682 2.7219C89.1675 2.32538 89.1227 1.92597 89.0629 1.53326C88.9883 1.0434 88.678 0.739345 88.196 0.636024C87.8203 0.555469 87.4365 0.511977 87.0131 0.445197Z" fill="#2D2D2D"/>
<path d="M81.3985 18.5694C81.3985 18.7142 81.3985 18.8451 81.3985 19C78.7849 19 76.1838 19 73.5433 19C73.534 18.8778 73.5234 18.7379 73.5099 18.5599C73.8311 18.5191 74.1326 18.483 74.4334 18.4418C74.5937 18.4198 74.7545 18.3965 74.9122 18.3611C75.7262 18.1788 76.0447 17.8465 76.1539 17.0197C76.2061 16.6242 76.2328 16.2224 76.2333 15.8235C76.2385 10.9033 76.2368 5.98312 76.2369 1.06295C76.2369 0.917484 76.2369 0.772021 76.2369 0.65846C76.1703 0.610959 76.1475 0.580628 76.1237 0.579717C75.1363 0.542055 74.1494 0.514226 73.1731 0.718267C72.1593 0.930149 71.4925 1.52834 71.1757 2.52015C70.8993 3.38518 70.7825 4.28067 70.6699 5.17709C70.6536 5.30703 70.6361 5.43682 70.6163 5.58809C70.4281 5.58809 70.2602 5.58809 70.1167 5.58809C70.0778 3.7243 70.0392 1.87858 70 0C74.9591 0 79.9488 0 85 0C84.8532 1.84611 84.7479 3.69956 84.9161 5.58424C84.7056 5.58424 84.5364 5.58424 84.3261 5.58424C84.2639 5.13922 84.2117 4.68732 84.1354 4.23957C84.0559 3.773 83.965 3.30767 83.8583 2.84664C83.5606 1.56022 82.7597 0.792806 81.45 0.660583C80.5876 0.573518 79.7142 0.596154 78.8457 0.571921C78.8206 0.571221 78.7947 0.595983 78.7338 0.626765C78.7272 0.750405 78.713 0.894049 78.713 1.03769C78.7121 6.01714 78.7101 10.9966 78.7172 15.976C78.7178 16.3887 78.7598 16.8044 78.8201 17.2131C78.9097 17.8193 79.2706 18.2062 79.8697 18.3275C80.3583 18.4265 80.8551 18.4851 81.3985 18.5694Z" fill="#2D2D2D"/>
<path d="M66.4613 0.416287C66.6714 0.416287 66.8258 0.416287 66.9989 0.416287C66.9718 2.4909 66.9451 4.5414 66.9181 6.61078C66.7177 6.61078 66.5477 6.61078 66.347 6.61078C66.2657 6.16895 66.1878 5.73186 66.1047 5.2958C65.9619 4.54649 65.7699 3.81574 65.3818 3.15227C64.5506 1.73104 63.3105 0.937135 61.7511 0.631604C60.9912 0.482707 60.2246 0.427445 59.4599 0.573302C58.3742 0.780412 57.5061 1.37583 56.7977 2.2302C55.9611 3.23921 55.4649 4.42622 55.1382 5.69243C54.6687 7.5118 54.5525 9.36545 54.6604 11.2402C54.7371 12.5729 54.9217 13.8857 55.3976 15.1317C55.6348 15.7525 55.9134 16.37 56.2631 16.9295C57.5661 19.0151 59.6258 19.8606 61.9782 19.3191C62.3024 19.2445 62.6228 19.1454 62.9379 19.0361C64.5438 18.4787 65.5053 17.2988 65.9281 15.6478C66.1008 14.9732 66.1682 14.2699 66.283 13.5795C66.3069 13.4357 66.3283 13.2914 66.3533 13.1323C66.5416 13.1323 66.6968 13.1323 66.9159 13.1323C66.9439 15.279 66.9717 17.4163 67 19.5864C66.8424 19.5864 66.6762 19.5864 66.4659 19.5864C66.4174 19.3181 66.3767 19.0277 66.3113 18.7433C66.1297 17.9537 65.8501 17.8465 65.1813 18.2799C64.6912 18.5976 64.196 18.9075 63.6938 19.2044C63.0331 19.5951 62.3222 19.8437 61.5624 19.9271C59.8761 20.1123 58.2303 19.9686 56.6748 19.2185C54.5457 18.1918 53.2465 16.4283 52.5466 14.1674C52.0109 12.4373 51.9169 10.6553 52.06 8.85472C52.1637 7.55073 52.4409 6.28954 52.9733 5.09794C53.8923 3.04098 55.2856 1.45617 57.3581 0.59948C59.0224 -0.088498 60.7432 -0.166788 62.4793 0.274747C63.4219 0.514492 64.2341 1.04021 65.0189 1.61043C65.1607 1.7135 65.2975 1.82766 65.4499 1.91079C65.7937 2.09826 66.037 2.01819 66.1861 1.65094C66.2744 1.43342 66.3176 1.19529 66.3696 0.963706C66.4084 0.79097 66.4289 0.613866 66.4613 0.416287Z" fill="#2D2D2D"/>
<path d="M17 18.5379C17 18.7205 17 18.8609 17 18.9989C14.9448 18.9989 12.9131 18.9989 10.8459 18.9989C10.8373 18.874 10.8278 18.7345 10.8162 18.5655C11.1046 18.5226 11.374 18.4885 11.6413 18.4416C12.613 18.2711 12.8651 17.8996 12.5845 16.9364C12.3796 16.2332 12.1067 15.5499 11.8555 14.8609C11.5489 14.0199 11.2339 13.182 10.9213 12.3433C10.8655 12.1938 10.8039 12.0466 10.7441 11.8961C8.59601 11.8961 6.47413 11.8961 4.33018 11.8961C4.27764 12.0209 4.22394 12.1385 4.17797 12.2591C3.82267 13.1915 3.45245 14.1186 3.12158 15.0597C2.95709 15.5276 2.85325 16.019 2.74726 16.5054C2.70433 16.7024 2.70828 16.9162 2.72644 17.1192C2.78218 17.7419 3.1125 18.1631 3.70954 18.327C4.11314 18.4378 4.53201 18.4918 4.98637 18.5793C4.99403 18.6951 5.0032 18.834 5.01417 19C3.34757 19 1.71128 19 0.0211893 19C0.0151479 18.8745 0.00784372 18.7228 0 18.5598C0.121029 18.5044 0.226247 18.4597 0.328547 18.4089C0.849879 18.1504 1.29088 17.7935 1.57464 17.2759C1.77126 16.9172 1.95249 16.5458 2.09942 16.1639C4.11223 10.9326 6.11783 5.6985 8.12549 0.465172C8.18313 0.314925 8.244 0.165935 8.30985 0C8.44289 0 8.56967 0 8.72966 0C8.78639 0.138609 8.84925 0.284164 8.90606 0.432099C10.9736 5.81528 13.0404 11.1987 15.108 16.5819C15.1764 16.7599 15.2495 16.9361 15.3236 17.1118C15.6398 17.8621 16.1524 18.3829 17 18.5379ZM10.467 11.3352C10.4349 10.9414 7.77235 3.75156 7.5378 3.43705C6.53623 6.06802 5.54176 8.68034 4.53109 11.3352C6.55355 11.3352 8.5093 11.3352 10.467 11.3352Z" fill="#2D2D2D"/>
<path d="M49.9822 18.5666C49.9822 18.7223 49.9822 18.8535 49.9822 19C47.6644 19 45.3611 19 43.0232 19C43.0163 18.8674 43.0089 18.7269 43 18.558C43.3193 18.5132 43.6148 18.4753 43.909 18.4297C44.7783 18.295 45.0868 17.9843 45.1754 17.1292C45.2135 16.7613 45.239 16.3904 45.2393 16.0209C45.2436 11.664 45.2438 7.30718 45.239 2.95032C45.2385 2.56605 45.2112 2.18014 45.1687 1.79797C45.0862 1.05814 44.8002 0.745387 44.0622 0.591937C43.7263 0.522091 43.3815 0.493816 43.0233 0.444276C43.0233 0.292462 43.0233 0.16386 43.0233 0C45.324 0 47.6252 0 49.9693 0C49.9781 0.129191 49.9876 0.268257 50 0.449403C49.7813 0.476362 49.5901 0.495797 49.4004 0.524373C49.177 0.558022 48.9511 0.585534 48.7329 0.640622C48.263 0.759241 47.9746 1.06498 47.8908 1.53024C47.8332 1.84982 47.7879 2.1766 47.7874 2.50023C47.7811 7.16829 47.7812 11.8364 47.788 16.5044C47.7885 16.828 47.8338 17.1551 47.894 17.474C47.9814 17.9366 48.2583 18.2515 48.7431 18.3488C49.14 18.4284 49.5407 18.4898 49.9822 18.5666Z" fill="#2D2D2D"/>
</svg>
