<svg xmlns="http://www.w3.org/2000/svg">
	<symbol id="search" viewBox="0 0 16 16">
		<path d="M0 6.875C0 6.58333 0 6.29167 0 6C0.0405056 5.73427 0.0745152 5.46735 0.122528 5.20298C0.570704 2.73522 2.59155 0.66291 5.04812 0.156486C5.37279 0.0895568 5.70339 0.0514536 6.03125 0C6.3125 0 6.59375 0 6.875 0C6.91469 0.009472 6.95399 0.0211672 6.99412 0.0280664C7.3473 0.0887832 7.70696 0.123942 8.05295 0.212537C12.0541 1.23708 14.0624 5.77015 12.1336 9.42105C11.957 9.7553 11.7416 10.069 11.5251 10.4236C11.5586 10.449 11.6138 10.4814 11.6576 10.5252C12.9583 11.824 14.2568 13.125 15.5589 14.4224C15.7401 14.6029 15.9151 14.7832 16 15.0312C16 15.1354 16 15.2396 16 15.3438C15.9026 15.6839 15.6823 15.9011 15.3438 16C15.25 16 15.1563 16 15.0625 16C14.8226 15.9355 14.6464 15.7807 14.475 15.6086C13.1524 14.2806 11.8259 12.9564 10.5004 11.6313C10.4644 11.5953 10.4262 11.5615 10.394 11.5313C10.3776 11.5345 10.3715 11.5341 10.3675 11.5368C10.3459 11.5511 10.3245 11.5658 10.3035 11.5811C8.77745 12.6932 7.0863 13.09 5.22561 12.7543C2.73838 12.3057 0.670054 10.2988 0.155714 7.82737C0.090232 7.51274 0.0512552 7.19259 0 6.875ZM1.59497 6.42374C1.58483 9.08282 3.75137 11.2606 6.42326 11.2771C9.08208 11.2935 11.2661 9.12292 11.2778 6.45236C11.2895 3.789 9.12227 1.60972 6.45179 1.5995C3.79122 1.58931 1.60513 3.76074 1.59497 6.42374Z" />
	</symbol>
	<symbol id="favorite" viewBox="0 0 18 17">
		<path d="M9.05049 1.98457C9.43351 1.51141 9.89874 1.06007 10.4437 0.706296C11.8807 -0.226462 13.3654 -0.185551 14.8476 0.537205C16.5219 1.3537 17.4861 2.79837 17.8505 4.66163C18.3109 7.01583 17.7022 9.0831 16.1035 10.7912C15.4679 11.4704 14.7376 12.0517 14.0491 12.6759C12.5504 14.0346 11.0501 15.3913 9.55245 16.7513C9.31793 16.9642 9.06133 17.0671 8.75985 16.9526C8.65606 16.9132 8.55618 16.845 8.47185 16.7688C6.30729 14.812 4.12666 12.8742 1.9901 10.884C0.916716 9.88416 0.29649 8.57755 0.082622 7.08089C-0.181319 5.23382 0.177269 3.5294 1.30056 2.06575C2.44578 0.573533 3.96593 -0.110456 5.78626 0.0448814C6.85563 0.136136 7.72413 0.715675 8.49239 1.47476C8.66718 1.64746 8.85444 1.80619 9.05049 1.98457ZM9.0002 15.1905C10.4982 13.8326 11.9771 12.4928 13.455 11.1518C14.0016 10.6559 14.5797 10.1921 15.0844 9.65252C16.2245 8.43361 16.69 6.94967 16.4501 5.25391C16.2872 4.10314 15.8229 3.09301 14.9091 2.39489C13.6993 1.47073 12.395 1.27039 11.0298 2.01418C10.4829 2.31211 10.0844 2.78765 9.75588 3.32908C9.72714 3.37645 9.70045 3.42519 9.67204 3.47279C9.31762 4.06651 8.6753 4.07141 8.32952 3.47438C7.97197 2.857 7.54095 2.309 6.919 1.98436C5.55273 1.27121 4.24939 1.47987 3.06075 2.41959C2.05398 3.21553 1.59072 4.3544 1.50531 5.64743C1.38969 7.39767 1.99435 8.84792 3.26294 9.99251C4.63794 11.2331 6.00831 12.4794 7.38072 13.7231C7.91676 14.2089 8.45286 14.6946 9.0002 15.1905Z" />
	</symbol>
	<symbol id="basket" viewBox="0 0 14 18">
		<path d="M3.16254 4.3881C2.93303 2.02819 4.76683 0.0411889 6.92788 0.000716512C8.02834 -0.0198931 8.97749 0.404177 9.74706 1.26386C10.516 2.12283 10.8617 3.16813 10.8331 4.38877C11.2047 4.38877 11.5617 4.38299 11.9185 4.39022C12.3677 4.39933 12.734 4.60145 13.0146 4.9825C13.1976 5.23097 13.2912 5.52057 13.3123 5.83462C13.4054 7.22256 13.4941 8.61086 13.5852 9.99896C13.6812 11.4623 13.7782 12.9255 13.8747 14.3888C13.9161 15.0178 13.9651 15.6465 13.9969 16.2761C14.0486 17.298 13.4404 17.9978 12.5017 17.9983C8.83099 18.0005 5.16027 18.0007 1.48955 17.9982C0.563203 17.9975 -0.053574 17.2969 0.00367532 16.2875C0.0836205 14.8781 0.185583 13.4701 0.278501 12.0615C0.361042 10.8102 0.444613 9.55893 0.526739 8.3076C0.580594 7.48705 0.626236 6.66579 0.687331 5.84588C0.752062 4.97717 1.34364 4.39294 2.14663 4.38841C2.4801 4.38653 2.8136 4.3881 3.16254 4.3881ZM3.20257 5.7054C2.82091 5.7054 2.4681 5.70341 2.11532 5.70635C1.96765 5.70758 1.90329 5.80668 1.8935 5.95679C1.84176 6.74998 1.79056 7.54321 1.73879 8.3364C1.65801 9.57405 1.57744 10.8117 1.49582 12.0493C1.40157 13.4783 1.30512 14.9072 1.21245 16.3363C1.19476 16.6091 1.26064 16.6818 1.51123 16.6819C5.16919 16.6825 8.82714 16.6825 12.4851 16.6819C12.7387 16.6819 12.8046 16.6107 12.7874 16.3399C12.7225 15.314 12.6535 14.2885 12.5859 13.2629C12.4776 11.6219 12.369 9.98093 12.2611 8.33992C12.2089 7.54676 12.1579 6.75352 12.1065 5.9603C12.0975 5.82153 12.044 5.71202 11.9062 5.70902C11.555 5.70136 11.2036 5.70647 10.832 5.70647C10.832 5.80731 10.832 5.8878 10.832 5.96828C10.8317 6.97632 10.8321 7.98435 10.8308 8.99239C10.8305 9.28434 10.6978 9.49033 10.4571 9.60366C10.227 9.71199 10.0108 9.65828 9.82397 9.48128C9.66464 9.33036 9.61974 9.12882 9.62014 8.90658C9.62189 7.91912 9.62087 6.93165 9.62086 5.94418C9.62086 5.87096 9.62086 5.79774 9.62086 5.7193C7.86311 5.7193 6.12666 5.7193 4.3789 5.7193C4.3789 5.81529 4.3789 5.89698 4.3789 5.97867C4.37889 6.94557 4.37955 7.91246 4.3786 8.87935C4.37813 9.35019 4.13642 9.65578 3.76881 9.65505C3.39995 9.65431 3.16243 9.34481 3.17069 8.87567C3.18132 8.27234 3.19488 7.66904 3.2016 7.06566C3.20655 6.62123 3.20257 6.17669 3.20257 5.7054ZM9.62262 4.37898C9.64279 3.17135 9.21653 2.23994 8.25215 1.67128C7.2833 1.09998 6.31306 1.1837 5.42597 1.89438C4.66823 2.50144 4.34113 3.34988 4.38311 4.37898C6.13639 4.37898 7.86706 4.37898 9.62262 4.37898Z" />
	</symbol>
	<symbol id="user" viewBox="0 0 14 17">
		<path d="M6.94202 17C5.38404 16.9737 3.79918 16.7728 2.28436 16.1376C1.62549 15.8612 1.00816 15.5068 0.523585 14.9313C0.170941 14.5119 -0.0131174 14.025 0.000727701 13.4513C0.0504072 11.4431 0.717416 9.71568 2.01804 8.27426C2.2925 7.97071 2.67691 7.95053 2.93997 8.21811C3.21117 8.49359 3.21442 8.91294 2.92938 9.22702C2.05469 10.1921 1.51962 11.3378 1.33393 12.6705C1.30135 12.903 1.30054 13.1398 1.27366 13.3732C1.23702 13.6969 1.36569 13.9399 1.57744 14.147C1.96348 14.5225 2.42444 14.7541 2.90739 14.9383C4.47433 15.5375 6.09665 15.6823 7.74341 15.6033C8.88604 15.548 10.0132 15.3752 11.0882 14.9348C11.4751 14.776 11.844 14.5593 12.2015 14.333C12.6079 14.0759 12.7692 13.6908 12.7228 13.1609C12.5908 11.6387 12.0647 10.3228 11.0671 9.23053C10.9099 9.05857 10.8097 8.86557 10.8358 8.61992C10.8659 8.34093 11.0068 8.14178 11.2527 8.04528C11.5085 7.94527 11.7357 8.01457 11.9271 8.21723C12.4939 8.81907 12.9508 9.50513 13.2986 10.2772C13.7383 11.2545 13.9582 12.2871 13.9981 13.3714C14.0242 14.0803 13.775 14.6479 13.3043 15.119C12.7236 15.6998 12.0207 16.0437 11.2804 16.3087C9.89103 16.807 8.4544 16.9825 6.94202 17Z" />
		<path d="M7.50371 4.033e-06C10.0123 0.00329561 12.0025 2.02103 12 4.55883C11.9975 6.98308 9.95227 9.00493 7.507 8.99999C5.0033 8.99505 2.99343 6.97485 3.00002 4.46996C3.00578 2.00869 5.03293 -0.00328754 7.50371 4.033e-06ZM7.48643 7.71299C9.27161 7.71299 10.7103 6.28197 10.7144 4.50288C10.7177 2.72872 9.27655 1.28866 7.49383 1.28619C5.7424 1.2829 4.28973 2.7279 4.28561 4.47655C4.2815 6.26058 5.71771 7.71299 7.48643 7.71299Z" />
	</symbol>
	<symbol id="close" viewBox="0 0 15 15">
		<path d="M14 1.00005L1.00005 14M1 1L14 14" stroke-width="1.5" stroke-linecap="round" />
	</symbol>
	<symbol id="back" viewBox="0 0 8 15">
		<path d="M7 14L1 7.5L7 1" stroke-width="1.5" stroke-linecap="round" stroke-linejoin="round" />
	</symbol>
	<symbol id="burger" viewBox="0 0 10 8">
		<path d="M1 1H9" stroke="white" stroke-linecap="round" />
		<path d="M1 4H9" stroke="white" stroke-linecap="round" />
		<path d="M1 7H9" stroke="white" stroke-linecap="round" />
	</symbol>
	<symbol id="arrCatalog" viewBox="0 0 12 10">
		<path d="M6.83446 9L11 5M11 5L6.83446 1M11 5L1 5" stroke-width="1.2" stroke-linecap="round" stroke-linejoin="round" />
	</symbol>
</svg>
