<svg width="12" height="12" viewBox="0 0 12 12" fill="none" xmlns="http://www.w3.org/2000/svg">
<path d="M8.86477 2.10633C9.13081 2.11906 9.39733 2.15527 9.65962 2.20568C10.2945 2.32705 10.7008 2.77142 10.8209 3.46489C10.987 4.42361 11.0204 5.3931 10.9899 6.36259C10.9683 7.0404 10.9054 7.71772 10.843 8.39308C10.797 8.89226 10.6042 9.31755 10.1805 9.60042C9.92426 9.7717 9.63522 9.82015 9.34243 9.85245C8.20551 9.97725 7.0639 10.0051 5.92276 9.99927C4.77786 9.9934 3.63296 9.95767 2.48854 9.91852C2.11598 9.9058 1.74295 9.85686 1.3732 9.80009C0.749609 9.70368 0.306196 9.26029 0.198275 8.58982C0.115693 8.07791 0.0701783 7.55818 0.0349868 7.03991C-0.022258 6.20256 -0.00583531 5.36325 0.0593862 4.52638C0.0898855 4.13536 0.132115 3.74238 0.209537 3.35918C0.348426 2.67256 0.809669 2.25951 1.47549 2.17289C2.54625 2.03341 3.62264 2.02118 4.69903 2.00209C4.95851 1.99769 5.47794 2.0016 5.47794 2.0016C5.48544 1.99328 7.73582 2.05348 8.86477 2.10633ZM4.40859 7.71478C5.36814 7.13926 6.30986 6.5745 7.26801 6.00044C6.3047 5.42295 5.36204 4.85819 4.40859 4.28658C4.40859 5.43715 4.40859 6.5652 4.40859 7.71478Z" fill="white"/>
</svg>
