<svg width="14" height="14" viewBox="0 0 14 14" fill="none" xmlns="http://www.w3.org/2000/svg">
<path d="M4.64055 4.40883C4.75469 4.18421 4.95444 4.093 5.18162 4.06294C5.7858 3.98385 6.39217 3.96962 6.9947 4.07665C7.30419 4.13149 7.42602 4.26594 7.43205 4.56965C7.43864 4.9129 7.41998 5.25615 7.41943 5.5994C7.41888 5.92525 7.41943 6.2511 7.4348 6.57642C7.44193 6.72406 7.49461 6.87907 7.65704 6.93075C7.81014 6.97925 7.9166 6.85956 8.00989 6.76413C8.44395 6.31806 8.75948 5.79501 9.03715 5.25035C9.15458 5.01993 9.25391 4.78055 9.35872 4.54381C9.44871 4.33923 9.54639 4.27279 9.77687 4.27069C10.3618 4.26541 10.9468 4.25961 11.5318 4.25592C11.9872 4.25329 12.097 4.4083 11.9192 4.81588C11.7205 5.27144 11.4105 5.66109 11.1076 6.05337C10.8733 6.35655 10.628 6.65182 10.3986 6.95816C10.1017 7.35467 10.1198 7.50072 10.476 7.84819C10.8486 8.21148 11.2283 8.56896 11.5888 8.94279C11.7233 9.08199 11.8243 9.25494 11.9208 9.42313C12.0657 9.67569 11.9774 9.86393 11.6893 9.9446C11.6174 9.96464 11.5406 9.97676 11.4654 9.97782C10.9567 9.98784 10.4474 9.99574 9.9382 9.99996C9.68193 10.0021 9.44871 9.91455 9.26324 9.75478C9.01191 9.53755 8.78472 9.29448 8.54547 9.06406C8.4198 8.94279 8.29963 8.81361 8.16024 8.70763C7.92428 8.52836 7.70259 8.57054 7.58899 8.83892C7.50339 9.04087 7.45675 9.26601 7.43864 9.48482C7.40736 9.8692 7.28663 9.99522 6.88495 9.99785C6.39766 10.0015 5.91256 10.0031 5.43844 9.86498C4.60214 9.62191 3.9376 9.14316 3.38611 8.50516C2.67712 7.68579 2.12617 6.76887 1.62077 5.82559C1.42926 5.46758 1.2553 5.1006 1.07477 4.73732C1.05172 4.69092 1.03032 4.64346 1.0155 4.59443C0.970503 4.44521 1.02318 4.35136 1.17738 4.31076C1.2372 4.29494 1.3003 4.28598 1.36231 4.28545C1.82656 4.27965 2.29135 4.28229 2.75559 4.27121C3.0585 4.26383 3.25166 4.37087 3.37129 4.65612C3.65829 5.33787 4.02485 5.98061 4.48416 6.57115C4.56867 6.67977 4.66909 6.78206 4.77829 6.868C4.96212 7.01194 5.13114 6.96713 5.20632 6.75253C5.25845 6.60384 5.3018 6.4446 5.30454 6.28906C5.31168 5.87779 5.31552 5.46494 5.28149 5.05579C5.24857 4.65875 5.09382 4.52166 4.69049 4.43361C4.67842 4.43045 4.66744 4.42201 4.64055 4.40883Z" fill="white"/>
</svg>
