<svg width="12" height="10" viewBox="0 0 12 10" fill="none" xmlns="http://www.w3.org/2000/svg">
<path fill-rule="evenodd" clip-rule="evenodd" d="M1.14315 5.63116L1.14965 5.63327C1.14748 5.63256 1.14532 5.63186 1.14315 5.63116ZM1.14315 5.63116C1.14305 5.63112 1.14295 5.63109 1.14285 5.63105L1.14315 5.63116Z" fill="white"/>
<path d="M11.4075 0.000742176H11.3912L11.3905 0L11.2747 0.0229988C9.82916 0.360565 8.45449 0.881382 7.26872 1.51423C6.19388 1.96333 4.04591 2.89343 0.824828 4.30453C0.301918 4.51374 0.0279186 4.71826 0.00283072 4.91808C-0.0431515 5.29228 0.476824 5.41537 1.14315 5.63116L1.14965 5.63327C1.16551 5.63841 1.18144 5.6436 1.19746 5.64886L1.14965 5.63327L1.14315 5.63116C1.69426 5.83513 2.27487 5.97828 2.9145 6.05616H2.91893C3.37051 6.03687 3.7852 5.87217 4.11355 5.61176C7.12311 3.56955 8.67659 2.53731 8.77399 2.51505L8.77252 2.5158C8.80203 2.50467 8.83376 2.49799 8.86697 2.49799C8.91714 2.49799 8.9651 2.51209 9.00347 2.53731C9.03815 2.57737 9.05955 2.63005 9.05955 2.68792C9.05955 2.70424 9.05808 2.71982 9.05513 2.73392C8.99978 2.96836 6.17297 5.55389 6.0099 5.72453C5.38861 6.37296 4.68098 6.77136 5.7723 7.49323C6.71605 8.11866 7.26577 8.5178 8.23829 9.15955C8.85959 9.56908 9.34659 10.055 9.9878 9.99493C10.283 9.96822 10.5877 9.68927 10.7427 8.85611C11.1086 6.88858 11.8288 2.62634 11.9948 0.86877V0.875447C11.9985 0.827965 12 0.780483 12 0.732259C12 0.626167 11.9919 0.522301 11.9771 0.431789V0.429563C11.9631 0.310858 11.9056 0.205508 11.82 0.130575L11.8222 0.132059C11.7048 0.0489656 11.5617 0.000742176 11.4075 0.000742176Z" fill="white"/>
</svg>
